<svg width="21" height="21" viewBox="0 0 21 21" fill="none" xmlns="http://www.w3.org/2000/svg">
<path d="M19.933 19.0835L14.966 14.1165C17.8797 10.5529 17.3529 5.30207 13.7893 2.3884C10.2258 -0.525275 4.97496 0.00144434 2.06125 3.565C-0.852462 7.12855 -0.325665 12.3794 3.23789 15.2931C6.30734 17.8029 10.7199 17.8029 13.7894 15.2931L18.7564 20.2601C19.087 20.5794 19.6138 20.5702 19.933 20.2396C20.2444 19.9172 20.2444 19.4059 19.933 19.0835ZM1.86984 8.85406C1.86984 5.17746 4.85031 2.19699 8.52691 2.19699C12.2035 2.19699 15.184 5.17746 15.184 8.85406C15.184 12.5307 12.2035 15.5111 8.52691 15.5111C4.85203 15.507 1.87398 12.5289 1.86984 8.85406ZM10.1912 5.52551C9.56957 5.52832 8.97313 5.77164 8.52695 6.20453C8.08078 5.77168 7.48434 5.52832 6.8627 5.52551C5.43953 5.5748 4.32375 6.76496 4.36629 8.18832C4.36629 9.85258 6.06469 11.5693 7.49012 12.7151C8.09688 13.1984 8.95703 13.1984 9.56379 12.7151C10.9892 11.5693 12.6876 9.85258 12.6876 8.18832C12.7301 6.76496 11.6144 5.5748 10.1912 5.52551ZM8.53191 11.417C6.98914 10.1771 6.03051 8.93726 6.03051 8.18836C5.98898 7.68422 6.35926 7.23984 6.86266 7.1898C7.36602 7.23984 7.73633 7.68422 7.69481 8.18836C7.69481 8.64793 8.06734 9.02051 8.52695 9.02051C8.98652 9.02051 9.3591 8.64797 9.3591 8.18836C9.31758 7.68422 9.68785 7.23984 10.1913 7.1898C10.6946 7.23984 11.0649 7.68422 11.0234 8.18836C11.0233 8.93726 10.0647 10.1771 8.53191 11.417Z" fill="white"/>
</svg>
