<svg width="21" height="21" viewBox="0 0 21 21" fill="none" xmlns="http://www.w3.org/2000/svg">
<path d="M19.933 19.0901L14.966 14.1231C17.8797 10.5595 17.3529 5.3087 13.7893 2.39499C10.2258 -0.518721 4.97496 0.00807577 2.06125 3.57163C-0.852461 7.13518 -0.325664 12.386 3.23789 15.2997C6.30734 17.8094 10.7199 17.8094 13.7894 15.2997L18.7563 20.2667C19.0869 20.586 19.6137 20.5768 19.933 20.2462C20.2444 19.9238 20.2444 19.4126 19.933 19.0901ZM9.56375 12.7209C8.95699 13.2042 8.09684 13.2042 7.49008 12.7209C6.06465 11.5759 4.36625 9.85921 4.36625 8.19495C4.32371 6.77155 5.43949 5.5814 6.86266 5.53214C7.4843 5.53495 8.08074 5.77827 8.52691 6.21116C8.97308 5.77831 9.56953 5.53495 10.1912 5.53214C11.6143 5.58143 12.7301 6.77159 12.6876 8.19495C12.6876 9.85921 10.9892 11.5759 9.56375 12.7209ZM11.0233 8.19495C11.0233 8.94386 10.0647 10.1837 8.53191 11.4236C6.98914 10.1837 6.03051 8.94386 6.03051 8.19495C5.98898 7.69081 6.35926 7.24643 6.86266 7.1964C7.36601 7.24643 7.73633 7.69081 7.6948 8.19495C7.6948 8.65452 8.06734 9.0271 8.52695 9.0271C8.98652 9.0271 9.3591 8.65456 9.3591 8.19495C9.31758 7.69081 9.68785 7.24643 10.1912 7.1964C10.6946 7.24643 11.0648 7.69081 11.0233 8.19495Z" fill="#FB406C"/>
</svg>
