<svg width="21" height="20" viewBox="0 0 21 20" fill="none" xmlns="http://www.w3.org/2000/svg">
<g clip-path="url(#clip0_347_1139)">
<path d="M2.16668 9.16668H11.3334C12.2538 9.16668 13 8.42047 13 7.5V1.66668C13 0.746211 12.2538 0 11.3333 0H2.16668C1.24621 0 0.5 0.746211 0.5 1.66668V7.5C0.5 8.42047 1.24621 9.16668 2.16668 9.16668Z" fill="#FB406C"/>
<path d="M20.2148 0.735C19.9051 0.275547 19.3873 7.8125e-05 18.8332 0H16.3332C15.4127 0 14.6665 0.746211 14.6665 1.66668V7.5C14.6665 8.42047 15.4127 9.16668 16.3332 9.16668H18.8332C19.7537 9.16668 20.4998 8.42047 20.4998 7.5V1.66668C20.5004 1.33457 20.4011 1.00996 20.2148 0.735Z" fill="#FB406C"/>
<path d="M5.59832 11.1183C5.32336 10.932 4.99875 10.8327 4.66664 10.8333H2.16664C1.24621 10.8333 0.5 11.5795 0.5 12.4999V18.3333C0.5 19.2538 1.24621 19.9999 2.16668 19.9999H4.66668C5.58715 19.9999 6.33336 19.2537 6.33336 18.3333V12.4999C6.33324 11.9458 6.05777 11.428 5.59832 11.1183Z" fill="#FB406C"/>
<path d="M19.765 11.1183C19.49 10.932 19.1654 10.8327 18.8333 10.8333H9.66668C8.74621 10.8333 8 11.5795 8 12.4999V18.3333C8 19.2538 8.74621 19.9999 9.66668 19.9999H18.8334C19.7538 19.9999 20.5 19.2538 20.5 18.3333V12.4999C20.4999 11.9458 20.2245 11.428 19.765 11.1183Z" fill="#FB406C"/>
</g>
<defs>
<clipPath id="clip0_347_1139">
<rect width="20" height="20" fill="white" transform="translate(0.5)"/>
</clipPath>
</defs>
</svg>
