<svg width="21" height="20" viewBox="0 0 21 20" fill="none" xmlns="http://www.w3.org/2000/svg">
<g clip-path="url(#clip0_347_382)">
<path d="M7.75 14.9998H3C1.75583 14.9998 0.5 14.0548 0.5 11.9448V7.74485C0.517523 5.82999 1.23452 3.9876 2.51598 2.56463C3.79744 1.14166 5.55493 0.23629 7.4575 0.0190131C8.53113 -0.058925 9.60896 0.0951644 10.6178 0.470811C11.6265 0.846457 12.5426 1.43486 13.3038 2.19603C14.065 2.9572 14.6534 3.87331 15.029 4.88209C15.4047 5.89088 15.5588 6.96871 15.4808 8.04235C15.2633 9.9457 14.3571 11.7038 12.9332 12.9853C11.5092 14.2668 9.66567 14.9834 7.75 14.9998ZM17.1667 7.56651H17.1567C17.1567 7.76401 17.1567 7.96151 17.1467 8.15985C16.825 12.6665 12.7058 16.4815 8.07 16.6507V16.6632C8.65384 17.6758 9.49364 18.5171 10.5052 19.1027C11.5167 19.6883 12.6645 19.9977 13.8333 19.9998H18C18.663 19.9998 19.2989 19.7365 19.7678 19.2676C20.2366 18.7988 20.5 18.1629 20.5 17.4998V13.3332C20.4988 12.1641 20.1902 11.0159 19.6051 10.0037C19.0201 8.99157 18.1791 8.15106 17.1667 7.56651Z" fill="#FB406C"/>
</g>
<defs>
<clipPath id="clip0_347_382">
<rect width="20" height="20" fill="white" transform="translate(0.5)"/>
</clipPath>
</defs>
</svg>
