<svg width="21" height="20" viewBox="0 0 21 20" fill="none" xmlns="http://www.w3.org/2000/svg">
<g clip-path="url(#clip0_347_244)">
<path d="M20.5 13.3332V17.4998C20.5 18.1629 20.2366 18.7988 19.7678 19.2676C19.2989 19.7365 18.663 19.9998 18 19.9998H13.8333C12.6642 19.9986 11.516 19.69 10.5039 19.105C9.49172 18.5199 8.65121 17.679 8.06667 16.6665C8.69489 16.662 9.32098 16.5928 9.935 16.4599C10.4026 17.0446 10.9958 17.5165 11.6707 17.8408C12.3455 18.1651 13.0846 18.3334 13.8333 18.3332H18C18.221 18.3332 18.433 18.2454 18.5893 18.0891C18.7455 17.9328 18.8333 17.7209 18.8333 17.4998V13.3332C18.8331 12.5842 18.6643 11.8449 18.3395 11.17C18.0146 10.4952 17.542 9.90214 16.9567 9.43485C17.0907 8.82094 17.1611 8.19485 17.1667 7.56651C18.1791 8.15106 19.0201 8.99157 19.6051 10.0037C20.1902 11.0159 20.4988 12.1641 20.5 13.3332ZM15.4808 8.04235C15.5588 6.96871 15.4047 5.89088 15.029 4.88209C14.6534 3.87331 14.065 2.9572 13.3038 2.19603C12.5426 1.43486 11.6265 0.846457 10.6178 0.470811C9.60896 0.0951644 8.53113 -0.058925 7.4575 0.0190131C5.55493 0.23629 3.79744 1.14166 2.51598 2.56463C1.23452 3.9876 0.517523 5.82999 0.5 7.74485L0.5 11.9448C0.5 14.0548 1.75583 14.9998 3 14.9998H7.75C9.66567 14.9834 11.5092 14.2668 12.9332 12.9853C14.3571 11.7038 15.2633 9.9457 15.4808 8.04235ZM12.125 3.37568C12.7166 3.9686 13.174 4.68168 13.4661 5.46667C13.7582 6.25166 13.8784 7.09024 13.8183 7.92568C13.6405 9.41208 12.9254 10.7822 11.8078 11.7781C10.6901 12.7741 9.24699 13.3271 7.75 13.3332H3C2.22667 13.3332 2.16667 12.2707 2.16667 11.9448V7.74485C2.17361 6.24849 2.72721 4.80627 3.72326 3.68958C4.71932 2.57289 6.08916 1.85874 7.575 1.68151C7.71333 1.67151 7.85167 1.66651 7.99 1.66651C8.75772 1.6658 9.51807 1.81638 10.2276 2.10964C10.9371 2.40291 11.5818 2.83312 12.125 3.37568Z" fill="white"/>
</g>
<defs>
<clipPath id="clip0_347_244">
<rect width="20" height="20" fill="white" transform="translate(0.5)"/>
</clipPath>
</defs>
</svg>
