<svg width="24" height="14" viewBox="0 0 24 14" fill="none" xmlns="http://www.w3.org/2000/svg">
<path d="M0.88029 9.08999L4.75029 13C4.84325 13.0937 4.95385 13.1681 5.07571 13.2189C5.19757 13.2697 5.32828 13.2958 5.46029 13.2958C5.5923 13.2958 5.72301 13.2697 5.84487 13.2189C5.96673 13.1681 6.07733 13.0937 6.17029 13C6.26402 12.907 6.33841 12.7964 6.38918 12.6746C6.43995 12.5527 6.46609 12.422 6.46609 12.29C6.46609 12.158 6.43995 12.0273 6.38918 11.9054C6.33841 11.7836 6.26402 11.673 6.17029 11.58L2.61029 7.99999H23.0003C23.2655 7.99999 23.5199 7.89463 23.7074 7.7071C23.8949 7.51956 24.0003 7.26521 24.0003 6.99999C24.0003 6.73478 23.8949 6.48042 23.7074 6.29288C23.5199 6.10535 23.2655 5.99999 23.0003 5.99999H2.55029L6.17029 2.37999C6.34758 2.19402 6.44648 1.94693 6.44648 1.68999C6.44648 1.43305 6.34758 1.18597 6.17029 0.999991C6.07733 0.906263 5.96673 0.831868 5.84487 0.7811C5.72301 0.730331 5.5923 0.704193 5.46029 0.704193C5.32828 0.704193 5.19757 0.730331 5.07571 0.7811C4.95385 0.831868 4.84325 0.906263 4.75029 0.999991L0.88029 4.84999C0.318488 5.41249 0.00292969 6.17499 0.00292969 6.96999C0.00292969 7.76499 0.318488 8.52749 0.88029 9.08999Z" fill="#212020"/>
</svg>
