<svg width="8" height="14" viewBox="0 0 8 14" fill="none" xmlns="http://www.w3.org/2000/svg">
<path d="M6.40029 4.88L1.81029 0.289999C1.62293 0.103748 1.36948 -0.000793457 1.10529 -0.000793457C0.841105 -0.000793457 0.587653 0.103748 0.400291 0.289999C0.306562 0.382962 0.232168 0.493563 0.181399 0.615422C0.130631 0.737282 0.104492 0.867987 0.104492 0.999999C0.104492 1.13201 0.130631 1.26272 0.181399 1.38458C0.232168 1.50644 0.306562 1.61704 0.400291 1.71L5.00029 6.29C5.09402 6.38296 5.16841 6.49356 5.21918 6.61542C5.26995 6.73728 5.29609 6.86799 5.29609 7C5.29609 7.13201 5.26995 7.26272 5.21918 7.38458C5.16841 7.50644 5.09402 7.61704 5.00029 7.71L0.400291 12.29C0.211987 12.477 0.105672 12.7311 0.104734 12.9965C0.103797 13.2618 0.208314 13.5167 0.395291 13.705C0.582269 13.8933 0.836391 13.9996 1.10176 14.0006C1.36712 14.0015 1.62199 13.897 1.81029 13.71L6.40029 9.12C6.96209 8.5575 7.27765 7.795 7.27765 7C7.27765 6.205 6.96209 5.4425 6.40029 4.88Z" fill="#374957"/>
</svg>
