<svg width="11" height="11" viewBox="0 0 11 11" fill="none" xmlns="http://www.w3.org/2000/svg">
<path d="M10.244 0.499848C10.0877 0.343622 9.87579 0.255859 9.65482 0.255859C9.43385 0.255859 9.22193 0.343622 9.06566 0.499848L5.24399 4.32152L1.42232 0.499848C1.26605 0.343622 1.05413 0.255859 0.833155 0.255859C0.612185 0.255859 0.400262 0.343622 0.243989 0.499848C0.087763 0.656121 0 0.868045 0 1.08901C0 1.30998 0.087763 1.52191 0.243989 1.67818L4.06566 5.49985L0.243989 9.32152C0.087763 9.47779 0 9.68971 0 9.91068C0 10.1317 0.087763 10.3436 0.243989 10.4998C0.400262 10.6561 0.612185 10.7438 0.833155 10.7438C1.05413 10.7438 1.26605 10.6561 1.42232 10.4998L5.24399 6.67818L9.06566 10.4998C9.22193 10.6561 9.43385 10.7438 9.65482 10.7438C9.87579 10.7438 10.0877 10.6561 10.244 10.4998C10.4002 10.3436 10.488 10.1317 10.488 9.91068C10.488 9.68971 10.4002 9.47779 10.244 9.32152L6.42232 5.49985L10.244 1.67818C10.4002 1.52191 10.488 1.30998 10.488 1.08901C10.488 0.868045 10.4002 0.656121 10.244 0.499848Z" fill="#212020"/>
</svg>
