<svg width="70" height="70" viewBox="0 0 70 70" fill="none" xmlns="http://www.w3.org/2000/svg">
<g opacity="0.3">
<path d="M43.7495 49.5831C43.7495 50.3566 43.4423 51.0985 42.8953 51.6455C42.3483 52.1925 41.6064 52.4997 40.8329 52.4997H29.1662C28.3927 52.4997 27.6508 52.1925 27.1038 51.6455C26.5568 51.0985 26.2495 50.3566 26.2495 49.5831C26.2495 48.8095 26.5568 48.0677 27.1038 47.5207C27.6508 46.9737 28.3927 46.6664 29.1662 46.6664H40.8329C41.6064 46.6664 42.3483 46.9737 42.8953 47.5207C43.4423 48.0677 43.7495 48.8095 43.7495 49.5831ZM42.895 21.271C42.348 20.7242 41.6063 20.4171 40.8329 20.4171C40.0595 20.4171 39.3178 20.7242 38.7708 21.271L34.9995 25.0423L31.2283 21.271C30.9592 20.9925 30.6374 20.7703 30.2816 20.6174C29.9257 20.4646 29.543 20.3841 29.1557 20.3807C28.7684 20.3774 28.3844 20.4512 28.0259 20.5978C27.6675 20.7445 27.3418 20.961 27.068 21.2349C26.7941 21.5087 26.5776 21.8344 26.4309 22.1928C26.2842 22.5513 26.2104 22.9354 26.2138 23.3226C26.2172 23.7099 26.2976 24.0926 26.4505 24.4485C26.6034 24.8043 26.8256 25.1261 27.1041 25.3952L30.8754 29.1664L27.1041 32.9377C26.8256 33.2067 26.6034 33.5286 26.4505 33.8844C26.2976 34.2403 26.2172 34.623 26.2138 35.0103C26.2104 35.3975 26.2842 35.7816 26.4309 36.1401C26.5776 36.4985 26.7941 36.8241 27.068 37.098C27.3418 37.3719 27.6675 37.5884 28.0259 37.7351C28.3844 37.8817 28.7684 37.9555 29.1557 37.9522C29.543 37.9488 29.9257 37.8683 30.2816 37.7155C30.6374 37.5626 30.9592 37.3404 31.2283 37.0618L34.9995 33.2906L38.7708 37.0618C39.3209 37.5931 40.0576 37.8871 40.8224 37.8805C41.5871 37.8738 42.3187 37.5671 42.8594 37.0263C43.4002 36.4855 43.7069 35.754 43.7136 34.9893C43.7202 34.2245 43.4263 33.4878 42.895 32.9377L39.1237 29.1664L42.895 25.3952C43.4418 24.8482 43.7489 24.1065 43.7489 23.3331C43.7489 22.5597 43.4418 21.818 42.895 21.271ZM64.1662 46.6664H52.4995C51.726 46.6664 50.9841 46.9737 50.4372 47.5207C49.8902 48.0677 49.5829 48.8095 49.5829 49.5831C49.5829 50.3566 49.8902 51.0985 50.4372 51.6455C50.9841 52.1925 51.726 52.4997 52.4995 52.4997H64.1662C64.9398 52.4997 65.6816 52.1925 66.2286 51.6455C66.7756 51.0985 67.0829 50.3566 67.0829 49.5831C67.0829 48.8095 66.7756 48.0677 66.2286 47.5207C65.6816 46.9737 64.9398 46.6664 64.1662 46.6664ZM62.457 29.1664L66.2283 25.3952C66.5069 25.1261 66.7291 24.8043 66.8819 24.4485C67.0348 24.0926 67.1152 23.7099 67.1186 23.3226C67.122 22.9354 67.0482 22.5513 66.9015 22.1928C66.7549 21.8344 66.5383 21.5087 66.2645 21.2349C65.9906 20.961 65.6649 20.7445 65.3065 20.5978C64.948 20.4512 64.564 20.3774 64.1767 20.3807C63.7894 20.3841 63.4067 20.4646 63.0509 20.6174C62.695 20.7703 62.3732 20.9925 62.1041 21.271L58.3329 25.0423L54.5616 21.271C54.2926 20.9925 53.9707 20.7703 53.6149 20.6174C53.259 20.4646 52.8763 20.3841 52.4891 20.3807C52.1018 20.3774 51.7177 20.4512 51.3593 20.5978C51.0008 20.7445 50.6752 20.961 50.4013 21.2349C50.1275 21.5087 49.9109 21.8344 49.7642 22.1928C49.6176 22.5513 49.5438 22.9354 49.5471 23.3226C49.5505 23.7099 49.631 24.0926 49.7838 24.4485C49.9367 24.8043 50.1589 25.1261 50.4375 25.3952L54.2087 29.1664L50.4375 32.9377C50.1589 33.2067 49.9367 33.5286 49.7838 33.8844C49.631 34.2403 49.5505 34.623 49.5471 35.0103C49.5438 35.3975 49.6176 35.7816 49.7642 36.1401C49.9109 36.4985 50.1275 36.8241 50.4013 37.098C50.6752 37.3719 51.0008 37.5884 51.3593 37.7351C51.7177 37.8817 52.1018 37.9555 52.4891 37.9522C52.8763 37.9488 53.259 37.8683 53.6149 37.7155C53.9707 37.5626 54.2926 37.3404 54.5616 37.0618L58.3329 33.2906L62.1041 37.0618C62.6542 37.5931 63.391 37.8871 64.1557 37.8805C64.9205 37.8738 65.652 37.5671 66.1928 37.0263C66.7335 36.4855 67.0403 35.754 67.0469 34.9893C67.0536 34.2245 66.7596 33.4878 66.2283 32.9377L62.457 29.1664ZM17.4995 46.6664H5.83288C5.05933 46.6664 4.31746 46.9737 3.77048 47.5207C3.2235 48.0677 2.91621 48.8095 2.91621 49.5831C2.91621 50.3566 3.2235 51.0985 3.77048 51.6455C4.31746 52.1925 5.05933 52.4997 5.83288 52.4997H17.4995C18.2731 52.4997 19.015 52.1925 19.5619 51.6455C20.1089 51.0985 20.4162 50.3566 20.4162 49.5831C20.4162 48.8095 20.1089 48.0677 19.5619 47.5207C19.015 46.9737 18.2731 46.6664 17.4995 46.6664ZM19.5616 21.271C19.0147 20.7242 18.2729 20.4171 17.4995 20.4171C16.7261 20.4171 15.9844 20.7242 15.4375 21.271L11.6662 25.0423L7.89496 21.271C7.62591 20.9925 7.30407 20.7703 6.94823 20.6174C6.59238 20.4646 6.20966 20.3841 5.82238 20.3807C5.43511 20.3774 5.05104 20.4512 4.6926 20.5978C4.33415 20.7445 4.0085 20.961 3.73464 21.2349C3.46079 21.5087 3.24422 21.8344 3.09757 22.1928C2.95091 22.5513 2.87712 22.9354 2.88048 23.3226C2.88385 23.7099 2.96431 24.0926 3.11717 24.4485C3.27003 24.8043 3.49222 25.1261 3.77079 25.3952L7.54205 29.1664L3.77079 32.9377C3.49222 33.2067 3.27003 33.5286 3.11717 33.8844C2.96431 34.2403 2.88385 34.623 2.88048 35.0103C2.87712 35.3975 2.95091 35.7816 3.09757 36.1401C3.24422 36.4985 3.46079 36.8241 3.73464 37.098C4.0085 37.3719 4.33415 37.5884 4.6926 37.7351C5.05104 37.8817 5.43511 37.9555 5.82238 37.9522C6.20966 37.9488 6.59238 37.8683 6.94823 37.7155C7.30407 37.5626 7.62591 37.3404 7.89496 37.0618L11.6662 33.2906L15.4375 37.0618C15.7065 37.3404 16.0284 37.5626 16.3842 37.7155C16.74 37.8683 17.1228 37.9488 17.51 37.9522C17.8973 37.9555 18.2814 37.8817 18.6398 37.7351C18.9983 37.5884 19.3239 37.3719 19.5978 37.098C19.8716 36.8241 20.0882 36.4985 20.2349 36.1401C20.3815 35.7816 20.4553 35.3975 20.4519 35.0103C20.4486 34.623 20.3681 34.2403 20.2153 33.8844C20.0624 33.5286 19.8402 33.2067 19.5616 32.9377L15.7904 29.1664L19.5616 25.3952C20.1084 24.8482 20.4156 24.1065 20.4156 23.3331C20.4156 22.5597 20.1084 21.818 19.5616 21.271Z" fill="#212020"/>
</g>
</svg>
