<svg width="18" height="18" viewBox="0 0 18 18" fill="none" xmlns="http://www.w3.org/2000/svg">
<g clip-path="url(#clip0_48_1141)">
<path d="M17.7798 16.7203L13.3031 12.2435C14.5231 10.7515 15.1229 8.8476 14.9785 6.9257C14.8341 5.0038 13.9565 3.21093 12.5273 1.91792C11.0981 0.624914 9.22654 -0.0693001 7.29982 -0.0211262C5.37311 0.0270477 3.53862 0.813923 2.1758 2.17674C0.812985 3.53956 0.0261092 5.37405 -0.0220646 7.30076C-0.0702385 9.22747 0.623975 11.099 1.91698 12.5282C3.20999 13.9574 5.00287 14.835 6.92476 14.9794C8.84666 15.1238 10.7505 14.524 12.2426 13.304L16.7193 17.7808C16.8608 17.9174 17.0502 17.993 17.2469 17.9913C17.4435 17.9896 17.6317 17.9107 17.7707 17.7716C17.9098 17.6326 17.9886 17.4445 17.9903 17.2478C17.9921 17.0512 17.9165 16.8617 17.7798 16.7203ZM7.49959 13.5005C6.3129 13.5005 5.15287 13.1486 4.16617 12.4893C3.17948 11.8301 2.41044 10.893 1.95631 9.79663C1.50219 8.70027 1.38337 7.49387 1.61488 6.32999C1.84639 5.1661 2.41784 4.097 3.25695 3.25789C4.09607 2.41877 5.16516 1.84733 6.32905 1.61582C7.49294 1.38431 8.69934 1.50313 9.79569 1.95725C10.892 2.41138 11.8291 3.18041 12.4884 4.16711C13.1477 5.1538 13.4996 6.31384 13.4996 7.50053C13.4978 9.09128 12.8651 10.6164 11.7403 11.7412C10.6154 12.866 9.09034 13.4987 7.49959 13.5005Z" fill="#374957"/>
</g>
<defs>
<clipPath id="clip0_48_1141">
<rect width="18" height="18" fill="white"/>
</clipPath>
</defs>
</svg>
