<svg width="70" height="71" viewBox="0 0 70 71" fill="none" xmlns="http://www.w3.org/2000/svg">
<g opacity="0.3" clip-path="url(#clip0_271_5553)">
<path d="M69.1824 65.5424L51.7979 48.1579C61.9959 35.6855 60.1521 17.3075 47.6797 7.10963C35.2072 -3.08822 16.8294 -1.2447 6.63137 11.2277C-3.56662 23.7002 -1.72283 42.0782 10.7496 52.2762C21.4927 61.0602 36.9367 61.0602 47.6798 52.2762L65.0643 69.6606C66.2213 70.7781 68.0651 70.7461 69.1825 69.589C70.2724 68.4604 70.2724 66.671 69.1824 65.5424ZM5.96144 29.7395C5.96144 16.8714 16.3931 6.43971 29.2612 6.43971C42.1293 6.43971 52.5609 16.8714 52.5609 29.7395C52.5609 42.6076 42.1293 53.0392 29.2612 53.0392C16.3991 53.0247 5.97594 42.6015 5.96144 29.7395ZM35.0862 18.0895C32.9105 18.0994 30.8229 18.951 29.2613 20.4661C27.6997 18.9511 25.6122 18.0994 23.4364 18.0895C18.4553 18.2621 14.5501 22.4276 14.699 27.4094C14.699 33.2343 20.6434 39.2428 25.6324 43.2532C27.7561 44.9445 30.7666 44.9445 32.8903 43.2532C37.8793 39.2426 43.8237 33.2343 43.8237 27.4094C43.9724 22.4276 40.0673 18.2621 35.0862 18.0895ZM29.2787 38.7098C23.879 34.3703 20.5238 30.0307 20.5238 27.4095C20.3784 25.645 21.6744 24.0897 23.4363 23.9146C25.198 24.0897 26.4941 25.645 26.3488 27.4095C26.3488 29.018 27.6527 30.322 29.2613 30.322C30.8698 30.322 32.1738 29.0181 32.1738 27.4095C32.0285 25.645 33.3245 24.0897 35.0864 23.9146C36.8481 24.0897 38.1442 25.645 37.9989 27.4095C37.9986 30.0307 34.6435 34.3703 29.2787 38.7098Z" fill="#212020"/>
</g>
<defs>
<clipPath id="clip0_271_5553">
<rect width="70" height="70" fill="white" transform="translate(0 0.5)"/>
</clipPath>
</defs>
</svg>
