<svg width="70" height="70" viewBox="0 0 70 70" fill="none" xmlns="http://www.w3.org/2000/svg">
<path d="M29.1668 27.7083C29.1668 28.8687 28.7059 29.9815 27.8854 30.8019C27.0649 31.6224 25.9521 32.0833 24.7918 32.0833C23.6315 32.0833 22.5187 31.6224 21.6982 30.8019C20.8778 29.9815 20.4168 28.8687 20.4168 27.7083C20.4168 26.548 20.8778 25.4352 21.6982 24.6147C22.5187 23.7943 23.6315 23.3333 24.7918 23.3333C25.9521 23.3333 27.0649 23.7943 27.8854 24.6147C28.7059 25.4352 29.1668 26.548 29.1668 27.7083ZM45.2085 23.3333C44.0482 23.3333 42.9354 23.7943 42.1149 24.6147C41.2944 25.4352 40.8335 26.548 40.8335 27.7083C40.8335 28.8687 41.2944 29.9815 42.1149 30.8019C42.9354 31.6224 44.0482 32.0833 45.2085 32.0833C46.3688 32.0833 47.4816 31.6224 48.3021 30.8019C49.1225 29.9815 49.5835 28.8687 49.5835 27.7083C49.5835 26.548 49.1225 25.4352 48.3021 24.6147C47.4816 23.7943 46.3688 23.3333 45.2085 23.3333ZM70.0002 35C69.9901 25.7205 66.2994 16.8239 59.7378 10.2623C53.1762 3.70075 44.2796 0.0100365 35.0002 0C-11.3748 1.75 -11.3544 68.25 35.0002 70C44.2796 69.99 53.1762 66.2993 59.7378 59.7377C66.2994 53.1761 69.9901 44.2795 70.0002 35ZM64.1668 35C64.1583 42.7329 61.0827 50.1466 55.6147 55.6146C50.1468 61.0825 42.733 64.1582 35.0002 64.1667C-3.64276 62.7083 -3.62818 7.29167 35.0002 5.83333C42.733 5.84183 50.1468 8.91746 55.6147 14.3854C61.0827 19.8534 64.1583 27.2671 64.1668 35ZM51.7593 51.5258C52.0144 51.2401 52.2108 50.9069 52.3371 50.5453C52.4634 50.1837 52.5173 49.8008 52.4956 49.4183C52.474 49.0359 52.3772 48.6615 52.2108 48.3165C52.0444 47.9715 51.8117 47.6626 51.526 47.4075C46.8947 43.451 41.0837 41.1393 35.0002 40.8333C34.2266 40.8333 33.4847 41.1406 32.9378 41.6876C32.3908 42.2346 32.0835 42.9765 32.0835 43.75C32.0835 44.5235 32.3908 45.2654 32.9378 45.8124C33.4847 46.3594 34.2266 46.6667 35.0002 46.6667C39.65 46.9783 44.0797 48.763 47.6468 51.7621C48.2239 52.2751 48.981 52.5384 49.7519 52.4941C50.5228 52.4498 51.2447 52.1016 51.7593 51.5258ZM14.5835 46.6667C14.5835 48.2138 15.1981 49.6975 16.292 50.7915C17.386 51.8854 18.8697 52.5 20.4168 52.5C21.9639 52.5 23.4476 51.8854 24.5416 50.7915C25.6356 49.6975 26.2502 48.2138 26.2502 46.6667C25.7381 43.0094 24.1804 39.5779 21.7643 36.785C18.8418 33.5767 14.4464 44.1933 14.5835 46.6667Z" fill="#374957"/>
</svg>
