<svg width="94" height="52" viewBox="0 0 94 52" fill="none" xmlns="http://www.w3.org/2000/svg">
<g clip-path="url(#clip0_15_209)">
<path d="M32.9339 24.7795C33.2811 24.7795 33.5483 24.9386 33.7352 25.2567C33.9489 25.5748 34.0557 26.0122 34.0557 26.5689C34.0557 27.6028 33.8019 28.4246 33.2945 29.0344C31.7986 30.8105 30.343 32.0565 28.9273 32.7722C27.5384 33.488 25.8557 33.8459 23.879 33.8459C22.4902 33.8459 21.2081 33.6735 20.0328 33.3289C18.8574 32.9844 17.4285 32.4674 15.7457 31.7781C14.3034 31.1683 13.0213 30.678 11.8994 30.3068C10.6708 31.6324 9.56228 32.5601 8.574 33.0904C7.58572 33.594 6.54402 33.8459 5.44889 33.8459C3.97982 33.8459 2.80456 33.5145 1.92312 32.8518C1.04167 32.1625 0.600952 31.2745 0.600952 30.1875C0.600952 29.3658 0.868056 28.6103 1.40226 27.9209C1.96318 27.2316 2.73779 26.6882 3.72607 26.2906C4.71435 25.8929 5.8629 25.6941 7.17171 25.6941C7.91959 25.6941 8.48051 25.7074 8.85446 25.7339C14.0897 19.2655 18.8174 12.4392 23.0377 5.25506C20.7405 4.85741 18.4035 4.65859 16.0262 4.65859C12.9545 4.65859 10.6975 5.01647 9.25512 5.73224C7.83946 6.4215 7.13164 7.52165 7.13164 9.03271C7.13164 9.48338 7.18507 9.86777 7.2919 10.1859C7.39874 10.504 7.559 10.8751 7.77269 11.2993C8.01308 11.7765 8.13328 12.1211 8.13328 12.3332C8.13328 12.8634 7.87953 13.314 7.37203 13.6852C6.89125 14.0298 6.33033 14.2021 5.68928 14.2021C5.02153 14.2021 4.47395 14.0033 4.04659 13.6056C3.5391 13.155 3.12508 12.5453 2.80456 11.7765C2.51074 10.9812 2.36384 10.0931 2.36384 9.11224C2.36384 6.01059 3.6593 3.7175 6.2502 2.23294C8.8411 0.748393 12.26 0.00611877 16.507 0.00611877C18.6171 0.00611877 20.7673 0.125413 22.9575 0.364002C25.1746 0.602588 27.2446 0.98698 29.1677 1.51718C29.969 1.72926 30.5033 2.03412 30.7703 2.43177C31.0374 2.80291 31.171 3.29333 31.171 3.90306C31.171 4.61883 30.9841 5.17553 30.6101 5.57318C30.2361 5.97083 29.7152 6.16965 29.0475 6.16965H28.767C25.8823 10.8354 22.9575 15.3155 19.9927 19.6101C17.6154 23.0299 15.9461 25.3495 14.9845 26.5689C16.5336 26.9135 17.8826 27.2316 19.0311 27.5233C20.4468 27.8945 21.5819 28.1728 22.4367 28.3584C23.3181 28.5174 24.0794 28.5969 24.7204 28.5969C26.2696 28.5969 27.5917 28.345 28.6869 27.8414C29.8088 27.3112 30.8639 26.4761 31.8521 25.3362C32.1726 24.965 32.5332 24.7795 32.9339 24.7795ZM35.3353 33.8459C33.6792 33.8459 32.3571 33.2494 31.3688 32.0565C30.3805 30.8635 29.8864 29.2994 29.8864 27.3642C29.8864 25.2434 30.3805 23.242 31.3688 21.3598C32.3571 19.4511 33.6658 17.9267 35.2953 16.7868C36.9512 15.6203 38.7008 15.0372 40.5439 15.0372C41.1314 15.0372 41.5187 15.1565 41.7058 15.3951C41.9193 15.6072 42.093 16.0048 42.2266 16.588C42.7875 16.482 43.3751 16.4289 43.9895 16.4289C45.2983 16.4289 45.9527 16.8928 45.9527 17.8207C45.9527 18.3774 45.7524 19.703 45.3517 21.7972C44.7373 24.8458 44.4302 26.9666 44.4302 28.1595C44.4302 28.5572 44.5236 28.8753 44.7107 29.1139C44.9243 29.3525 45.1915 29.4718 45.512 29.4718C46.0194 29.4718 46.6338 29.1536 47.355 28.5174C48.0762 27.8547 49.051 26.7942 50.2798 25.3362C50.6003 24.965 50.9609 24.7795 51.3616 24.7795C51.7087 24.7795 51.9758 24.9386 52.1629 25.2567C52.3765 25.5748 52.4834 26.0122 52.4834 26.5689C52.4834 27.6293 52.2296 28.4512 51.7222 29.0344C50.627 30.3864 49.4651 31.5262 48.2365 32.4541C47.0077 33.382 45.8191 33.8459 44.6706 33.8459C43.7892 33.8459 42.9745 33.5542 42.2266 32.9711C41.5054 32.3613 40.9578 31.5395 40.5839 30.5056C39.1949 32.7325 37.4454 33.8459 35.3353 33.8459ZM36.7777 29.8296C37.3653 29.8296 37.9262 29.4851 38.4605 28.7958C38.9946 28.1065 39.382 27.1919 39.6224 26.052L41.1048 18.7353C39.9829 18.7618 38.9412 19.186 37.9797 20.0078C37.0448 20.8031 36.2969 21.8634 35.736 23.1889C35.1751 24.5145 34.8946 25.9194 34.8946 27.404C34.8946 28.2258 35.0549 28.8355 35.3754 29.2332C35.7226 29.6308 36.19 29.8296 36.7777 29.8296ZM79.5073 21.5586C79.5875 21.5321 79.7209 21.5188 79.908 21.5188C80.3086 21.5188 80.6158 21.6514 80.8295 21.9165C81.0431 22.1815 81.15 22.5394 81.15 22.9901C81.15 23.8119 80.9898 24.4614 80.6692 24.9386C80.3487 25.3893 79.8679 25.7206 79.2269 25.9327C77.9981 26.3304 76.6893 26.5292 75.3004 26.5292C74.1251 26.5292 73.0167 26.3701 71.975 26.052C71.2003 27.298 70.3456 28.5836 69.4108 29.9092C68.3423 31.4202 67.4208 32.4541 66.6463 33.0108C65.8983 33.5675 65.0437 33.8459 64.0821 33.8459C63.0136 33.8459 62.199 33.4349 61.6381 32.6132C61.1038 31.7914 60.7699 30.4394 60.6364 28.5572L60.4361 25.6544C59.608 27.8812 58.8601 29.5778 58.1924 30.7442C57.5514 31.9107 56.8969 32.7192 56.2292 33.1699C55.5882 33.6206 54.8269 33.8459 53.9455 33.8459C52.8503 33.8459 51.9823 33.4218 51.3412 32.5734C50.7268 31.725 50.3396 30.3864 50.1793 28.5572C49.8588 24.8458 49.6985 21.5984 49.6985 18.8148V17.4231C49.7252 16.5482 49.9656 15.9385 50.4197 15.5939C50.8737 15.2493 51.5548 15.0769 52.4631 15.0769C53.1574 15.0769 53.665 15.236 53.9856 15.5541C54.3327 15.8458 54.5064 16.3494 54.5064 17.0652C54.5064 20.1138 54.6933 24.0771 55.0673 28.9548C56.8835 25.1639 58.553 21.214 60.0755 17.1049C60.3692 16.3096 60.7166 15.7794 61.1172 15.5144C61.5445 15.2227 62.052 15.0769 62.6397 15.0769C63.3609 15.0769 63.8549 15.2227 64.1221 15.5144C64.4159 15.806 64.5629 16.323 64.5629 17.0652C64.5629 20.1138 64.7498 24.0771 65.1238 28.9548C66.7264 26.5954 67.9284 24.7133 68.7297 23.3082C68.329 22.5394 68.1287 21.6248 68.1287 20.5645C68.1287 19.6632 68.329 18.7884 68.7297 17.94C69.1303 17.0916 69.6778 16.4025 70.3724 15.8722C71.0667 15.342 71.8548 15.0769 72.7362 15.0769C73.5107 15.0769 74.1385 15.3553 74.6193 15.912C75.1001 16.4422 75.3405 17.2242 75.3405 18.2581C75.3405 19.4511 75.02 20.8164 74.3789 22.3539C75.3938 22.3008 76.7428 22.102 78.4256 21.7574L79.5073 21.5586ZM82.6403 6.28894C83.6285 6.28894 84.4298 6.52753 85.0442 7.00471C85.6585 7.48188 85.9657 8.15788 85.9657 9.03271C85.9657 10.0931 85.6184 10.9414 84.924 11.5776C84.2295 12.1874 83.308 12.4922 82.1595 12.4922C81.0377 12.4922 80.1963 12.2404 79.6354 11.7367C79.0745 11.2065 78.794 10.4775 78.794 9.54965C78.794 8.6218 79.1546 7.85303 79.8758 7.2433C80.6236 6.60706 81.5451 6.28894 82.6403 6.28894ZM82.1595 15.1167C82.9608 15.1167 83.4817 15.236 83.7221 15.4746C83.9891 15.7132 84.1227 16.0446 84.1227 16.4687C84.1227 17.6086 83.7087 20.8561 82.8807 26.2111C82.7738 26.8473 82.6002 27.974 82.3598 29.5911C81.3715 36.3775 79.996 41.7591 78.2331 45.7355C76.4702 49.7385 74.1462 51.74 71.2615 51.74C69.8726 51.74 68.7642 51.3159 67.9361 50.4675C67.0815 49.6458 66.654 48.5588 66.654 47.2068C66.654 45.3246 67.3886 43.3099 68.8576 41.1626C70.3268 39.0418 73.0913 36.4173 77.1513 33.2892L77.4318 31.2612C77.8056 28.7162 78.0995 26.2111 78.3132 23.7456C78.4735 22.3141 78.7271 20.1801 79.0745 17.3435C79.1813 16.5747 79.4751 16.018 79.9559 15.6734C80.4367 15.3022 81.1711 15.1167 82.1595 15.1167ZM71.7022 47.8828C72.3968 47.8828 73.158 47.1008 73.986 45.5367C74.8141 43.9726 75.5886 41.4543 76.3099 37.9814C74.2798 39.7046 72.8241 41.2554 71.9426 42.6339C71.0345 44.039 70.5804 45.2717 70.5804 46.332C70.5804 47.3659 70.9544 47.8828 71.7022 47.8828ZM89.5923 33.8459C88.417 33.8459 87.5221 33.5278 86.9079 32.8915C86.3202 32.2553 86.0265 31.4202 86.0265 30.3864C86.0265 29.1934 86.3602 28.2391 87.0281 27.5233C87.7225 26.8075 88.684 26.4496 89.9128 26.4496C91.088 26.4496 91.9694 26.7413 92.5571 27.3245C93.1714 27.8812 93.4787 28.7162 93.4787 29.8296C93.4787 31.049 93.1313 32.03 92.4369 32.7722C91.7424 33.488 90.7943 33.8459 89.5923 33.8459Z" fill="#FB406C"/>
</g>
<defs>
<clipPath id="clip0_15_209">
<rect width="94" height="52" fill="white"/>
</clipPath>
</defs>
</svg>
