<svg width="159" height="89" viewBox="0 0 159 89" fill="none" xmlns="http://www.w3.org/2000/svg">
<path d="M55.0577 42.4111C55.6487 42.4111 56.1035 42.6834 56.4216 43.2278C56.7854 43.7723 56.9672 44.5209 56.9672 45.4738C56.9672 47.2433 56.5352 48.6498 55.6715 49.6934C53.1254 52.7333 50.6477 54.8659 48.238 56.0909C45.874 57.316 43.0097 57.9285 39.6452 57.9285C37.2812 57.9285 35.0989 57.6335 33.0984 57.0438C31.0978 56.454 28.6656 55.5692 25.8013 54.3895C23.3462 53.3458 21.1639 52.5066 19.2544 51.8713C17.1631 54.14 15.2763 55.7279 13.5941 56.6354C11.9119 57.4974 10.1388 57.9285 8.27475 57.9285C5.77421 57.9285 3.77377 57.3613 2.27344 56.2271C0.773113 55.0473 0.0229492 53.5275 0.0229492 51.6671C0.0229492 50.2607 0.477593 48.9675 1.38688 47.7878C2.34164 46.608 3.66012 45.6779 5.34229 44.9974C7.02447 44.3168 8.97946 43.9765 11.2072 43.9765C12.4802 43.9765 13.435 43.9992 14.0715 44.0445C22.9825 32.9737 31.0296 21.2902 38.2131 8.99423C34.3031 8.31365 30.3251 7.97335 26.2787 7.97335C21.0503 7.97335 17.2085 8.58588 14.7534 9.81094C12.3438 10.9906 11.139 12.8736 11.139 15.4598C11.139 16.2312 11.23 16.8891 11.4118 17.4335C11.5937 17.978 11.8664 18.6132 12.2302 19.3392C12.6393 20.1559 12.8439 20.7457 12.8439 21.1087C12.8439 22.0162 12.412 22.7875 11.5482 23.4227C10.7298 24.0125 9.77508 24.3075 8.68393 24.3075C7.54733 24.3075 6.61529 23.9672 5.88787 23.2866C5.02405 22.5152 4.31934 21.4717 3.77377 20.1559C3.27365 18.7947 3.02361 17.2747 3.02361 15.5959C3.02361 10.2874 5.22864 6.36263 9.63869 3.82176C14.0487 1.2809 19.8682 0.0104675 27.097 0.0104675C30.6887 0.0104675 34.3487 0.214644 38.0767 0.622998C41.8504 1.03135 45.3738 1.68925 48.6472 2.5967C50.0111 2.95969 50.9205 3.48147 51.3751 4.16206C51.8296 4.79728 52.057 5.63666 52.057 6.68023C52.057 7.90529 51.7389 8.85812 51.1023 9.5387C50.4657 10.2193 49.5791 10.5596 48.4426 10.5596H47.9652C43.0551 18.5452 38.0767 26.2131 33.0302 33.5635C28.9837 39.4165 26.1423 43.3867 24.5056 45.4738C27.1424 46.0635 29.4386 46.608 31.3934 47.1072C33.8031 47.7425 35.7352 48.2189 37.1902 48.5364C38.6905 48.8086 39.9862 48.9448 41.0774 48.9448C43.7142 48.9448 45.9647 48.5136 47.8288 47.6516C49.7384 46.7441 51.5343 45.3149 53.2164 43.3639C53.762 42.7286 54.3757 42.4111 55.0577 42.4111ZM59.1453 57.9285C56.3264 57.9285 54.0759 56.9076 52.3938 54.8659C50.7115 52.8241 49.8706 50.147 49.8706 46.8349C49.8706 43.2051 50.7115 39.7796 52.3938 36.5581C54.0759 33.2912 56.3036 30.6822 59.0771 28.7313C61.8957 26.7348 64.8738 25.7367 68.0109 25.7367C69.011 25.7367 69.6702 25.9409 69.9886 26.3492C70.3521 26.7123 70.6477 27.3929 70.8751 28.391C71.8299 28.2096 72.83 28.1188 73.8758 28.1188C76.1035 28.1188 77.2174 28.9127 77.2174 30.5008C77.2174 31.4536 76.8765 33.7224 76.1945 37.3067C75.1487 42.5245 74.626 46.1544 74.626 48.1961C74.626 48.8767 74.7849 49.4212 75.1033 49.8295C75.4669 50.2379 75.9217 50.4421 76.4673 50.4421C77.331 50.4421 78.3768 49.8976 79.6043 48.8086C80.8319 47.6744 82.4911 45.8593 84.5827 43.3639C85.1283 42.7286 85.742 42.4111 86.424 42.4111C87.0149 42.4111 87.4695 42.6834 87.7879 43.2278C88.1515 43.7723 88.3335 44.5209 88.3335 45.4738C88.3335 47.2886 87.9015 48.6953 87.0378 49.6934C85.1736 52.0074 83.1959 53.9583 81.1047 55.5465C79.0131 57.1346 76.99 57.9285 75.0351 57.9285C73.5348 57.9285 72.1481 57.4293 70.8751 56.4312C69.6476 55.3876 68.7154 53.9811 68.0791 52.2116C65.7148 56.0229 62.7369 57.9285 59.1453 57.9285ZM61.6004 51.0546C62.6005 51.0546 63.5553 50.4648 64.4647 49.2851C65.3738 48.1053 66.0332 46.5399 66.4424 44.589L68.9656 32.0662C67.0561 32.1115 65.283 32.8376 63.6463 34.2441C62.055 35.6052 60.782 37.42 59.8273 39.6888C58.8725 41.9575 58.3951 44.362 58.3951 46.903C58.3951 48.3095 58.6679 49.3531 59.2135 50.0337C59.8045 50.7143 60.6 51.0546 61.6004 51.0546ZM134.332 36.8983C134.468 36.8531 134.695 36.8303 135.014 36.8303C135.696 36.8303 136.218 37.0572 136.582 37.5109C136.946 37.9645 137.128 38.577 137.128 39.3485C137.128 40.7549 136.855 41.8666 136.309 42.6834C135.764 43.4548 134.945 44.0218 133.854 44.3848C131.763 45.0654 129.535 45.4057 127.171 45.4057C125.17 45.4057 123.284 45.1335 121.511 44.589C120.192 46.7216 118.737 48.922 117.146 51.1907C115.327 53.7769 113.759 55.5465 112.441 56.4993C111.167 57.4521 109.713 57.9285 108.076 57.9285C106.257 57.9285 104.871 57.2252 103.916 55.8187C103.007 54.4122 102.438 52.0982 102.211 48.8767L101.87 43.9084C100.46 47.7197 99.1875 50.6235 98.051 52.6199C96.9599 54.6164 95.8459 56.0001 94.7094 56.7715C93.6182 57.5429 92.3225 57.9285 90.8222 57.9285C88.958 57.9285 87.4805 57.2027 86.3894 55.7506C85.3436 54.2986 84.6845 52.0074 84.4117 48.8767C83.8661 42.5245 83.5933 36.9664 83.5933 32.2023V29.8202C83.6387 28.3229 84.0479 27.2793 84.8209 26.6895C85.5936 26.0997 86.7529 25.8048 88.2989 25.8048C89.4808 25.8048 90.3448 26.077 90.8904 26.6215C91.4813 27.1207 91.7769 27.9826 91.7769 29.2077C91.7769 34.4255 92.0951 41.2088 92.7317 49.5573C95.8231 43.0689 98.6648 36.3086 101.256 29.2758C101.756 27.9146 102.347 27.007 103.029 26.5534C103.757 26.0543 104.62 25.8048 105.621 25.8048C106.848 25.8048 107.689 26.0543 108.144 26.5534C108.644 27.0526 108.894 27.9374 108.894 29.2077C108.894 34.4255 109.212 41.2088 109.849 49.5573C112.577 45.519 114.623 42.2978 115.987 39.8929C115.305 38.577 114.964 37.0117 114.964 35.1969C114.964 33.6543 115.305 32.157 115.987 30.705C116.669 29.253 117.601 28.0735 118.783 27.1659C119.965 26.2584 121.306 25.8048 122.806 25.8048C124.125 25.8048 125.193 26.2812 126.012 27.234C126.83 28.1415 127.239 29.4799 127.239 31.2495C127.239 33.2912 126.694 35.628 125.602 38.2595C127.33 38.1687 129.626 37.8284 132.49 37.2386L134.332 36.8983ZM139.664 10.7638C141.346 10.7638 142.71 11.1721 143.756 11.9888C144.802 12.8055 145.325 13.9625 145.325 15.4598C145.325 17.2747 144.734 18.7266 143.552 19.8156C142.369 20.8592 140.801 21.3809 138.846 21.3809C136.937 21.3809 135.504 20.9499 134.55 20.0878C133.595 19.1804 133.118 17.9326 133.118 16.3446C133.118 14.7565 133.731 13.4408 134.959 12.3972C136.232 11.3082 137.8 10.7638 139.664 10.7638ZM138.846 25.8728C140.21 25.8728 141.097 26.077 141.506 26.4854C141.96 26.8937 142.188 27.4609 142.188 28.1868C142.188 30.1378 141.483 35.6961 140.074 44.8612C139.892 45.9502 139.596 47.8786 139.187 50.6462C137.505 62.2615 135.163 71.4722 132.163 78.2781C129.162 85.1293 125.206 88.555 120.296 88.555C117.932 88.555 116.046 87.8291 114.636 86.3771C113.181 84.9707 112.454 83.1103 112.454 80.7963C112.454 77.5748 113.704 74.1265 116.204 70.4514C118.705 66.8215 123.411 62.3296 130.321 56.9757L130.799 53.5047C131.435 49.1489 131.935 44.8612 132.299 40.6416C132.572 38.1915 133.004 34.5391 133.595 29.6841C133.777 28.3682 134.277 27.4154 135.095 26.8256C135.914 26.1903 137.164 25.8728 138.846 25.8728ZM121.046 81.9533C122.229 81.9533 123.524 80.6149 124.934 77.9378C126.343 75.2608 127.662 70.9505 128.889 65.0066C125.434 67.9559 122.956 70.6102 121.456 72.9695C119.91 75.3744 119.137 77.4842 119.137 79.299C119.137 81.0685 119.774 81.9533 121.046 81.9533ZM151.498 57.9285C149.497 57.9285 147.974 57.3841 146.928 56.2951C145.928 55.2062 145.428 53.7769 145.428 52.0074C145.428 49.9656 145.996 48.3322 147.133 47.1072C148.315 45.8821 149.952 45.2696 152.043 45.2696C154.043 45.2696 155.544 45.7688 156.544 46.7669C157.59 47.7197 158.113 49.1489 158.113 51.0546C158.113 53.1416 157.521 54.8206 156.34 56.0909C155.157 57.316 153.543 57.9285 151.498 57.9285Z" fill="white"/>
</svg>
